<svg xmlns="http://www.w3.org/2000/svg" xmlns:xlink="http://www.w3.org/1999/xlink" width="500" zoomAndPan="magnify" viewBox="0 0 375 374.999991" height="500" preserveAspectRatio="xMidYMid meet" version="1.0"><defs><g/></defs><g fill="#000000" fill-opacity="1"><g transform="translate(63.743047, 202.893718)"><g><path d="M 29.453125 0 L 23.078125 0 L 20.765625 -7.078125 L 9 -7.078125 L 6.703125 0 L 0.46875 0 L 11.0625 -30.703125 L 18.859375 -30.703125 Z M 14.59375 -24.296875 L 10.640625 -12.171875 L 19.078125 -12.171875 L 15.125 -24.296875 Z M 14.59375 -24.296875 "/></g></g></g><g fill="#000000" fill-opacity="1"><g transform="translate(93.660468, 202.893718)"><g><path d="M 9.609375 0.4375 C 7.523438 0.4375 5.929688 -0.125 4.828125 -1.25 C 3.734375 -2.375 3.1875 -4.085938 3.1875 -6.390625 L 3.1875 -32.453125 L 9 -32.453125 L 9 -6.609375 C 9 -5.203125 9.585938 -4.5 10.765625 -4.5 C 11.109375 -4.5 11.46875 -4.550781 11.84375 -4.65625 L 12.140625 -4.578125 L 12.65625 -0.109375 C 12.332031 0.0546875 11.90625 0.1875 11.375 0.28125 C 10.84375 0.382812 10.253906 0.4375 9.609375 0.4375 Z M 9.609375 0.4375 "/></g></g></g><g fill="#000000" fill-opacity="1"><g transform="translate(106.971091, 202.893718)"><g><path d="M 16.78125 0.4375 C 13.945312 0.4375 11.453125 -0.148438 9.296875 -1.328125 C 7.140625 -2.503906 5.453125 -4.269531 4.234375 -6.625 C 3.023438 -8.976562 2.421875 -11.882812 2.421875 -15.34375 C 2.421875 -18.800781 3.023438 -21.707031 4.234375 -24.0625 C 5.453125 -26.425781 7.140625 -28.195312 9.296875 -29.375 C 11.453125 -30.550781 13.945312 -31.140625 16.78125 -31.140625 C 19.726562 -31.140625 22.234375 -30.5625 24.296875 -29.40625 C 26.367188 -28.25 27.84375 -26.488281 28.71875 -24.125 L 24.296875 -21.421875 L 23.765625 -21.4375 C 23.109375 -23.03125 22.21875 -24.171875 21.09375 -24.859375 C 19.96875 -25.554688 18.53125 -25.90625 16.78125 -25.90625 C 14.226562 -25.90625 12.238281 -25.0625 10.8125 -23.375 C 9.382812 -21.6875 8.671875 -19.007812 8.671875 -15.34375 C 8.671875 -11.695312 9.382812 -9.03125 10.8125 -7.34375 C 12.238281 -5.65625 14.226562 -4.8125 16.78125 -4.8125 C 20.769531 -4.8125 23.210938 -6.75 24.109375 -10.625 L 24.625 -10.625 L 29.09375 -8.296875 C 28.257812 -5.378906 26.828125 -3.191406 24.796875 -1.734375 C 22.765625 -0.285156 20.09375 0.4375 16.78125 0.4375 Z M 16.78125 0.4375 "/></g></g></g><g fill="#000000" fill-opacity="1"><g transform="translate(137.077453, 202.893718)"><g><path d="M 13.453125 0.4375 C 11.191406 0.4375 9.203125 -0.0234375 7.484375 -0.953125 C 5.765625 -1.890625 4.429688 -3.253906 3.484375 -5.046875 C 2.546875 -6.847656 2.078125 -9.019531 2.078125 -11.5625 C 2.078125 -14.113281 2.546875 -16.289062 3.484375 -18.09375 C 4.429688 -19.90625 5.765625 -21.273438 7.484375 -22.203125 C 9.203125 -23.128906 11.191406 -23.59375 13.453125 -23.59375 C 15.722656 -23.59375 17.710938 -23.128906 19.421875 -22.203125 C 21.140625 -21.273438 22.472656 -19.90625 23.421875 -18.09375 C 24.378906 -16.289062 24.859375 -14.113281 24.859375 -11.5625 C 24.859375 -9.019531 24.378906 -6.847656 23.421875 -5.046875 C 22.472656 -3.253906 21.140625 -1.890625 19.421875 -0.953125 C 17.710938 -0.0234375 15.722656 0.4375 13.453125 0.4375 Z M 13.453125 -4.5 C 17.054688 -4.5 18.859375 -6.851562 18.859375 -11.5625 C 18.859375 -14.019531 18.394531 -15.816406 17.46875 -16.953125 C 16.539062 -18.097656 15.203125 -18.671875 13.453125 -18.671875 C 9.859375 -18.671875 8.0625 -16.300781 8.0625 -11.5625 C 8.0625 -6.851562 9.859375 -4.5 13.453125 -4.5 Z M 13.453125 -4.5 "/></g></g></g><g fill="#000000" fill-opacity="1"><g transform="translate(163.992625, 202.893718)"><g><path d="M 11.4375 0.4375 C 9.601562 0.4375 7.984375 -0.00390625 6.578125 -0.890625 C 5.171875 -1.773438 4.066406 -3.117188 3.265625 -4.921875 C 2.472656 -6.722656 2.078125 -8.9375 2.078125 -11.5625 C 2.078125 -14.207031 2.484375 -16.429688 3.296875 -18.234375 C 4.117188 -20.035156 5.253906 -21.378906 6.703125 -22.265625 C 8.148438 -23.148438 9.828125 -23.59375 11.734375 -23.59375 C 13.179688 -23.59375 14.429688 -23.34375 15.484375 -22.84375 C 16.535156 -22.351562 17.425781 -21.582031 18.15625 -20.53125 L 18.609375 -20.640625 L 18.609375 -32.453125 L 24.421875 -32.453125 L 24.421875 0 L 18.609375 0 L 18.609375 -3 L 18.15625 -3.09375 C 17.519531 -2 16.640625 -1.132812 15.515625 -0.5 C 14.398438 0.125 13.039062 0.4375 11.4375 0.4375 Z M 13.328125 -4.5 C 14.972656 -4.5 16.269531 -5.082031 17.21875 -6.25 C 18.164062 -7.414062 18.640625 -9.1875 18.640625 -11.5625 C 18.640625 -13.945312 18.164062 -15.726562 17.21875 -16.90625 C 16.269531 -18.082031 14.972656 -18.671875 13.328125 -18.671875 C 11.617188 -18.671875 10.3125 -18.097656 9.40625 -16.953125 C 8.507812 -15.816406 8.0625 -14.019531 8.0625 -11.5625 C 8.0625 -9.132812 8.507812 -7.347656 9.40625 -6.203125 C 10.3125 -5.066406 11.617188 -4.5 13.328125 -4.5 Z M 13.328125 -4.5 "/></g></g></g><g fill="#000000" fill-opacity="1"><g transform="translate(191.747583, 202.893718)"><g><path d="M 22.890625 -10.265625 L 8 -10.265625 C 8.164062 -8.253906 8.738281 -6.789062 9.71875 -5.875 C 10.695312 -4.957031 12.035156 -4.5 13.734375 -4.5 C 15.054688 -4.5 16.128906 -4.742188 16.953125 -5.234375 C 17.785156 -5.734375 18.453125 -6.488281 18.953125 -7.5 L 19.40625 -7.5 L 23.265625 -5.015625 C 22.503906 -3.390625 21.359375 -2.070312 19.828125 -1.0625 C 18.304688 -0.0625 16.273438 0.4375 13.734375 0.4375 C 11.335938 0.4375 9.265625 -0.015625 7.515625 -0.921875 C 5.773438 -1.828125 4.429688 -3.179688 3.484375 -4.984375 C 2.546875 -6.785156 2.078125 -8.976562 2.078125 -11.5625 C 2.078125 -14.195312 2.570312 -16.414062 3.5625 -18.21875 C 4.5625 -20.03125 5.90625 -21.378906 7.59375 -22.265625 C 9.289062 -23.148438 11.195312 -23.59375 13.3125 -23.59375 C 16.582031 -23.59375 19.085938 -22.722656 20.828125 -20.984375 C 22.578125 -19.253906 23.453125 -16.710938 23.453125 -13.359375 C 23.453125 -12.140625 23.410156 -11.191406 23.328125 -10.515625 Z M 17.890625 -14.03125 C 17.835938 -15.789062 17.425781 -17.070312 16.65625 -17.875 C 15.894531 -18.675781 14.78125 -19.078125 13.3125 -19.078125 C 10.375 -19.078125 8.644531 -17.394531 8.125 -14.03125 Z M 17.890625 -14.03125 "/></g></g></g><g fill="#ea710c" fill-opacity="1"><g transform="translate(216.92448, 202.893718)"><g><path d="M 3.984375 0 L 3.984375 -30.703125 L 17.09375 -30.703125 C 18.976562 -30.703125 20.578125 -30.398438 21.890625 -29.796875 C 23.203125 -29.203125 24.191406 -28.351562 24.859375 -27.25 C 25.535156 -26.15625 25.875 -24.863281 25.875 -23.375 C 25.875 -22.007812 25.539062 -20.804688 24.875 -19.765625 C 24.21875 -18.734375 23.273438 -17.90625 22.046875 -17.28125 L 22.046875 -16.84375 C 23.972656 -16.332031 25.460938 -15.410156 26.515625 -14.078125 C 27.566406 -12.753906 28.09375 -11.128906 28.09375 -9.203125 C 28.09375 -6.253906 27.207031 -3.984375 25.4375 -2.390625 C 23.664062 -0.796875 21.035156 0 17.546875 0 Z M 15.828125 -18.453125 C 18.660156 -18.453125 20.078125 -19.726562 20.078125 -22.28125 C 20.078125 -23.582031 19.722656 -24.550781 19.015625 -25.1875 C 18.316406 -25.820312 17.253906 -26.140625 15.828125 -26.140625 L 10.0625 -26.140625 L 10.0625 -18.453125 Z M 16.9375 -4.8125 C 20.289062 -4.8125 21.96875 -6.328125 21.96875 -9.359375 C 21.96875 -12.410156 20.289062 -13.9375 16.9375 -13.9375 L 10.0625 -13.9375 L 10.0625 -4.8125 Z M 16.9375 -4.8125 "/></g></g></g><g fill="#ea710c" fill-opacity="1"><g transform="translate(246.946862, 202.893718)"><g><path d="M 9.609375 0.4375 C 7.523438 0.4375 5.929688 -0.125 4.828125 -1.25 C 3.734375 -2.375 3.1875 -4.085938 3.1875 -6.390625 L 3.1875 -32.453125 L 9 -32.453125 L 9 -6.609375 C 9 -5.203125 9.585938 -4.5 10.765625 -4.5 C 11.109375 -4.5 11.46875 -4.550781 11.84375 -4.65625 L 12.140625 -4.578125 L 12.65625 -0.109375 C 12.332031 0.0546875 11.90625 0.1875 11.375 0.28125 C 10.84375 0.382812 10.253906 0.4375 9.609375 0.4375 Z M 9.609375 0.4375 "/></g></g></g><g fill="#ea710c" fill-opacity="1"><g transform="translate(260.257485, 202.893718)"><g><path d="M 13.453125 0.4375 C 11.191406 0.4375 9.203125 -0.0234375 7.484375 -0.953125 C 5.765625 -1.890625 4.429688 -3.253906 3.484375 -5.046875 C 2.546875 -6.847656 2.078125 -9.019531 2.078125 -11.5625 C 2.078125 -14.113281 2.546875 -16.289062 3.484375 -18.09375 C 4.429688 -19.90625 5.765625 -21.273438 7.484375 -22.203125 C 9.203125 -23.128906 11.191406 -23.59375 13.453125 -23.59375 C 15.722656 -23.59375 17.710938 -23.128906 19.421875 -22.203125 C 21.140625 -21.273438 22.472656 -19.90625 23.421875 -18.09375 C 24.378906 -16.289062 24.859375 -14.113281 24.859375 -11.5625 C 24.859375 -9.019531 24.378906 -6.847656 23.421875 -5.046875 C 22.472656 -3.253906 21.140625 -1.890625 19.421875 -0.953125 C 17.710938 -0.0234375 15.722656 0.4375 13.453125 0.4375 Z M 13.453125 -4.5 C 17.054688 -4.5 18.859375 -6.851562 18.859375 -11.5625 C 18.859375 -14.019531 18.394531 -15.816406 17.46875 -16.953125 C 16.539062 -18.097656 15.203125 -18.671875 13.453125 -18.671875 C 9.859375 -18.671875 8.0625 -16.300781 8.0625 -11.5625 C 8.0625 -6.851562 9.859375 -4.5 13.453125 -4.5 Z M 13.453125 -4.5 "/></g></g></g><g fill="#ea710c" fill-opacity="1"><g transform="translate(287.172657, 202.893718)"><g><path d="M 12.015625 9.828125 C 8.191406 9.828125 5.367188 9.265625 3.546875 8.140625 C 1.722656 7.023438 0.8125 5.46875 0.8125 3.46875 C 0.8125 2.25 1.203125 1.25 1.984375 0.46875 C 2.765625 -0.300781 3.878906 -0.820312 5.328125 -1.09375 L 5.328125 -1.53125 C 4.546875 -2.007812 3.984375 -2.535156 3.640625 -3.109375 C 3.296875 -3.691406 3.125 -4.367188 3.125 -5.140625 C 3.125 -7.003906 4.335938 -8.257812 6.765625 -8.90625 L 6.765625 -9.34375 C 5.515625 -10.0625 4.570312 -10.945312 3.9375 -12 C 3.3125 -13.050781 3 -14.328125 3 -15.828125 C 3 -17.367188 3.351562 -18.722656 4.0625 -19.890625 C 4.769531 -21.054688 5.804688 -21.960938 7.171875 -22.609375 C 8.535156 -23.265625 10.171875 -23.59375 12.078125 -23.59375 C 14.003906 -23.59375 15.539062 -23.257812 16.6875 -22.59375 C 17.40625 -23.625 17.820312 -24.820312 17.9375 -26.1875 L 18.375 -26.453125 L 22.546875 -25.421875 C 22.421875 -24.316406 22.097656 -23.390625 21.578125 -22.640625 C 21.066406 -21.890625 20.265625 -21.222656 19.171875 -20.640625 L 19.171875 -20.171875 C 20.472656 -19.023438 21.125 -17.425781 21.125 -15.375 C 21.125 -13.945312 20.765625 -12.664062 20.046875 -11.53125 C 19.335938 -10.394531 18.300781 -9.5 16.9375 -8.84375 C 15.570312 -8.1875 13.953125 -7.859375 12.078125 -7.859375 L 11.1875 -7.875 C 10.625 -7.90625 10.234375 -7.921875 10.015625 -7.921875 C 9.484375 -7.921875 9.066406 -7.773438 8.765625 -7.484375 C 8.460938 -7.203125 8.3125 -6.835938 8.3125 -6.390625 C 8.3125 -5.890625 8.503906 -5.503906 8.890625 -5.234375 C 9.285156 -4.960938 9.863281 -4.8125 10.625 -4.78125 L 15.8125 -4.59375 C 20.9375 -4.445312 23.5 -2.242188 23.5 2.015625 C 23.5 3.515625 23.113281 4.847656 22.34375 6.015625 C 21.582031 7.179688 20.347656 8.109375 18.640625 8.796875 C 16.929688 9.484375 14.722656 9.828125 12.015625 9.828125 Z M 12.078125 -11.921875 C 13.191406 -11.921875 14.0625 -12.25 14.6875 -12.90625 C 15.320312 -13.570312 15.640625 -14.507812 15.640625 -15.71875 C 15.640625 -16.9375 15.320312 -17.867188 14.6875 -18.515625 C 14.0625 -19.171875 13.191406 -19.5 12.078125 -19.5 C 10.941406 -19.5 10.066406 -19.171875 9.453125 -18.515625 C 8.835938 -17.867188 8.53125 -16.9375 8.53125 -15.71875 C 8.53125 -14.488281 8.835938 -13.546875 9.453125 -12.890625 C 10.066406 -12.242188 10.941406 -11.921875 12.078125 -11.921875 Z M 12.015625 5.609375 C 13.992188 5.609375 15.4375 5.328125 16.34375 4.765625 C 17.25 4.203125 17.703125 3.472656 17.703125 2.578125 C 17.703125 1.847656 17.46875 1.3125 17 0.96875 C 16.539062 0.632812 15.804688 0.453125 14.796875 0.421875 L 10.21875 0.203125 C 10.070312 0.203125 9.929688 0.195312 9.796875 0.1875 C 9.660156 0.175781 9.53125 0.171875 9.40625 0.171875 C 8.425781 0.171875 7.679688 0.378906 7.171875 0.796875 C 6.660156 1.210938 6.40625 1.796875 6.40625 2.546875 C 6.40625 3.523438 6.875 4.28125 7.8125 4.8125 C 8.75 5.34375 10.148438 5.609375 12.015625 5.609375 Z M 12.015625 5.609375 "/></g></g></g></svg>